name C:\Users\antoi\Documents\MyRepositories\upper-imu-dc\Results\main_tracking\Case_88\kinematics.mot
datacolumns 10
datarows 56
range 4.83000000 5.38000000
endheader 
time	clav_prot	clav_elev	scapula_abduction	scapula_elevation	scapula_upward_rot	scapula_winging	plane_elv	shoulder_elv	axial_rot	
          4.83000000	        -24.72171807	          4.75017351	         -5.09029573	         -1.96942418	         33.46829042	         -2.09320047	         74.82383079	         65.72849702	        -21.36158845	
          4.84000000	        -24.58578723	          4.66846539	         -5.24708352	         -1.92305097	         32.91637083	         -1.94058851	         74.75495328	         65.14731040	        -21.23671242	
          4.85000000	        -24.45693345	          4.58635326	         -5.40971730	         -1.87686291	         32.37032059	         -1.78866060	         74.67508741	         64.57016171	        -21.10361484	
          4.86000000	        -24.33505482	          4.50377096	         -5.57802500	         -1.83095907	         31.83013149	         -1.63740381	         74.58435534	         63.99761324	        -20.96366996	
          4.87000000	        -24.22001661	          4.42061304	         -5.75181335	         -1.78545246	         31.29572992	         -1.48678451	         74.48289356	         63.43020345	        -20.81829910	
          4.88000000	        -24.11165067	          4.33675160	         -5.93086001	         -1.74045982	         30.76699182	         -1.33675476	         74.37087331	         62.86843968	        -20.66892571	
          4.89000000	        -24.00976356	          4.25202656	         -6.11489357	         -1.69611634	         30.24378277	         -1.18726077	         74.24851788	         62.31281981	        -20.51693441	
          4.90000000	        -23.91415278	          4.16626289	         -6.30364142	         -1.65256067	         29.72593990	         -1.03824201	         74.11606910	         61.76380295	        -20.36364579	
          4.91000000	        -23.82458352	          4.07929883	         -6.49680266	         -1.60991146	         29.21326604	         -0.88963342	         73.97381752	         61.22174635	        -20.21026808	
          4.92000000	        -23.74080412	          3.99097933	         -6.69405273	         -1.56827797	         28.70555653	         -0.74137127	         73.82209265	         60.68694572	        -20.05788367	
          4.93000000	        -23.66255145	          3.90116833	         -6.89504167	         -1.52775567	         28.20262023	         -0.59340062	         73.66125247	         60.15964585	        -19.90743161	
          4.94000000	        -23.58954643	          3.80972645	         -7.09939395	         -1.48843808	         27.70425852	         -0.44566577	         73.49167222	         59.64003504	        -19.75973026	
          4.95000000	        -23.52148868	          3.71653658	         -7.30670299	         -1.45039917	         27.21027248	         -0.29811613	         73.31373371	         59.12823973	        -19.61546772	
          4.96000000	        -23.45805239	          3.62153215	         -7.51652229	         -1.41367567	         26.72047909	         -0.15071497	         73.12781518	         58.62432911	        -19.47518553	
          4.97000000	        -23.39889947	          3.52461523	         -7.72838464	         -1.37832079	         26.23467676	         -0.00341663	         72.93427624	         58.12833866	        -19.33935291	
          4.98000000	        -23.34367568	          3.42571148	         -7.94179324	         -1.34436987	         25.75267519	          0.14381664	         72.73345844	         57.64026972	        -19.20833508	
          4.99000000	        -23.29200654	          3.32481395	         -8.15621245	         -1.31181354	         25.27432075	          0.29100063	         72.52568284	         57.16008444	        -19.08235013	
          5.00000000	        -23.24352228	          3.22186346	         -8.37111002	         -1.28067505	         24.79943969	          0.43816427	         72.31123862	         56.68772622	        -18.96157624	
          5.01000000	        -23.19783945	          3.11687203	         -8.58592499	         -1.25093176	         24.32789984	          0.58531271	         72.09038517	         56.22309669	        -18.84604871	
          5.02000000	        -23.15457148	          3.00989457	         -8.80008089	         -1.22253572	         23.85960519	          0.73243336	         71.86334747	         55.76604880	        -18.73565178	
          5.03000000	        -23.11335022	          2.90094756	         -9.01303114	         -1.19546366	         23.39444440	          0.87952339	         71.63031574	         55.31640668	        -18.63022947	
          5.04000000	        -23.07379612	          2.79018958	         -9.22420108	         -1.16960442	         22.93239140	          1.02653243	         71.39145713	         54.87391777	        -18.52938335	
          5.05000000	        -23.03556965	          2.67775410	         -9.43306952	         -1.14486996	         22.47343389	          1.17340950	         71.14693010	         54.43826557	        -18.43260836	
          5.06000000	        -22.99835600	          2.56383797	         -9.63915983	         -1.12113350	         22.01759337	          1.32008308	         70.89690421	         54.00907248	        -18.33926398	
          5.07000000	        -22.96185237	          2.44880529	         -9.84200323	         -1.09816942	         21.56500111	          1.46642259	         70.64157944	         53.58585462	        -18.24836300	
          5.08000000	        -22.92583151	          2.33297603	        -10.04124361	         -1.07579157	         21.11579975	          1.61230062	         70.38120470	         53.16805367	        -18.15887744	
          5.09000000	        -22.89008970	          2.21683200	        -10.23654037	         -1.05372477	         20.67026058	          1.75752606	         70.11607494	         52.75498929	        -18.06950453	
          5.10000000	        -22.85444704	          2.10098563	        -10.42759250	         -1.03161674	         20.22873440	          1.90186274	         69.84651695	         52.34589985	        -17.97865848	
          5.11000000	        -22.81879414	          1.98598937	        -10.61423952	         -1.00915224	         19.79152269	          2.04509790	         69.57287448	         51.94001477	        -17.88478058	
          5.12000000	        -22.78301211	          1.87258895	        -10.79628101	         -0.98590589	         19.35907193	          2.18694494	         69.29546918	         51.53645967	        -17.78605323	
          5.13000000	        -22.74703809	          1.76147328	        -10.97360388	         -0.96149713	         18.93182389	          2.32712806	         69.01459127	         51.13433610	        -17.68075293	
          5.14000000	        -22.71082790	          1.65332233	        -11.14614692	         -0.93554688	         18.51019474	          2.46538073	         68.73047260	         50.73277076	        -17.56723603	
          5.15000000	        -22.67432433	          1.54885378	        -11.31385880	         -0.90764092	         18.09457775	          2.60143750	         68.44326768	         50.33094538	        -17.44382983	
          5.16000000	        -22.63809595	          1.44871088	        -11.47780002	         -0.87744451	         17.68531271	          2.73507054	         68.15307205	         49.92810344	        -17.30919004	
          5.17000000	        -22.60093989	          1.35344062	        -11.63583124	         -0.84461218	         17.28283218	          2.86602078	         67.85990429	         49.52347973	        -17.16219356	
          5.18000000	        -22.56331252	          1.26367543	        -11.78889489	         -0.80877986	         16.88735909	          2.99409850	         67.56364982	         49.11656447	        -17.00189957	
          5.19000000	        -22.52513706	          1.17985572	        -11.93700701	         -0.76966445	         16.49899777	          3.11917715	         67.26411731	         48.70701018	        -16.82780012	
          5.20000000	        -22.48629616	          1.10237204	        -12.08007818	         -0.72702397	         16.11788115	          3.24113354	         66.96100645	         48.29455266	        -16.63961923	
          5.21000000	        -22.44670005	          1.03141317	        -12.21807261	         -0.68073892	         15.74402424	          3.35991645	         66.65392834	         47.87910574	        -16.43755892	
          5.22000000	        -22.40626147	          0.96703739	        -12.35095909	         -0.63076847	         15.37736908	          3.47552145	         66.34239889	         47.46072971	        -16.22213819	
          5.23000000	        -22.36489667	          0.90918395	        -12.47870945	         -0.57714460	         15.01779530	          3.58798562	         66.02585881	         47.03962313	        -15.99423417	
          5.24000000	        -22.32254110	          0.85766765	        -12.60133672	         -0.51997126	         14.66509759	          3.69739471	         65.70370106	         46.61614427	        -15.75506764	
          5.25000000	        -22.27914811	          0.81223184	        -12.71888995	         -0.45939256	         14.31901833	          3.80386432	         65.37528561	         46.19079361	        -15.50612320	
          5.26000000	        -22.23471419	          0.77254018	        -12.83147771	         -0.39560822	         13.97927611	          3.90753295	         65.03998494	         45.76416760	        -15.24909602	
          5.27000000	        -22.18927906	          0.73822786	        -12.93926676	         -0.32884310	         13.64559680	          4.00854412	         64.69719643	         45.33690976	        -14.98581591	
          5.28000000	        -22.14290387	          0.70894504	        -13.04246980	         -0.25930786	         13.31769503	          4.10704394	         64.34633488	         44.90971843	        -14.71817033	
          5.29000000	        -22.09565691	          0.68439556	        -13.14135838	         -0.18715680	         12.99523144	          4.20318706	         63.98679596	         44.48339693	        -14.44807146	
          5.30000000	        -22.04767439	          0.66430464	        -13.23628056	         -0.11255192	         12.67794460	          4.29710520	         63.61804042	         44.05869612	        -14.17740567	
          5.31000000	        -21.99915647	          0.64843151	        -13.32767398	         -0.03564671	         12.36562663	          4.38891259	         63.23957708	         43.63629128	        -13.90797487	
          5.32000000	        -21.95033654	          0.63659103	        -13.41603654	          0.04343971	         12.05809504	          4.47871036	         62.85093402	         43.21681675	        -13.64148672	
          5.33000000	        -21.90147773	          0.62865604	        -13.50191820	          0.12462303	         11.75519870	          4.56658487	         62.45165218	         42.80085900	        -13.37954528	
          5.34000000	        -21.85286808	          0.62454837	        -13.58591177	          0.20784784	         11.45681512	          4.65261032	         62.04128585	         42.38894948	        -13.12362733	
          5.35000000	        -21.80481445	          0.62423083	        -13.66864069	          0.29308216	         11.16284917	          4.73685045	         61.61939750	         41.98156234	        -12.87506551	
          5.36000000	        -21.75763409	          0.62769912	        -13.75074162	          0.38031142	         10.87323405	          4.81935956	         61.18555300	         41.57911186	        -12.63503229	
          5.37000000	        -21.71164871	          0.63497453	        -13.83285174	          0.46953290	         10.58793186	          4.90018326	         60.73931603	         41.18194998	        -12.40452422	
          5.38000000	        -21.66717833	          0.64609691	        -13.91559577	          0.56075040	         10.30693431	          4.97935912	         60.28024513	         40.79036086	        -12.18434076	
